# xmcd
#
# Track frame offsets:
#	150
#	6765
#	22220
#	40515
#	54135
#	74982
#	92277
#	108502
#	125960
#	140840
#	157507
#	172182
#
# Disc length: 2503 seconds
#
# Revision: 0
# Processed by: cddbd v1.5PL3 Copyright (c) Steve Scherf et al.
# Submitted via: dBpowerAMP V4.0
#
DISCID=a209c50c
DTITLE=Hot Sauce Johnson - Truck Stop Jug Hop
DYEAR=1900
DGENRE=Blues
TTITLE0=Truck Stop Jug Hop
TTITLE1=TrainHoppin' 99
TTITLE2=Jack Kerouac
TTITLE3=Chemical Dependency
TTITLE4=Radio
TTITLE5=Galaxy
TTITLE6=If You Want Me To Stay
TTITLE7=Señorita
TTITLE8=Lost Picasso
TTITLE9=Solar System
TTITLE10=Brando
TTITLE11=Mayday
EXTD=
EXTT0=
EXTT1=
EXTT2=
EXTT3=
EXTT4=
EXTT5=
EXTT6=
EXTT7=
EXTT8=
EXTT9=
EXTT10=
EXTT11=
PLAYORDER=
